<svg id="SvgjsSvg1484" width="1244" height="1074" xmlns="http://www.w3.org/2000/svg" version="1.1" xmlns:xlink="http://www.w3.org/1999/xlink" xmlns:svgjs="http://svgjs.com/svgjs"><defs id="SvgjsDefs1485"><marker id="SvgjsMarker1544" markerWidth="16" markerHeight="12" refX="16" refY="6" viewBox="0 0 16 12" orient="auto" markerUnits="userSpaceOnUse" stroke-dasharray="0,0"><path id="SvgjsPath1545" d="M0,2 L14,6 L0,11 L0,2" fill="#323232" stroke="#323232" stroke-width="2"></path></marker><marker id="SvgjsMarker1548" markerWidth="16" markerHeight="12" refX="16" refY="6" viewBox="0 0 16 12" orient="auto" markerUnits="userSpaceOnUse" stroke-dasharray="0,0"><path id="SvgjsPath1549" d="M0,2 L14,6 L0,11 L0,2" fill="#323232" stroke="#323232" stroke-width="2"></path></marker><marker id="SvgjsMarker1552" markerWidth="16" markerHeight="12" refX="16" refY="6" viewBox="0 0 16 12" orient="auto" markerUnits="userSpaceOnUse" stroke-dasharray="0,0"><path id="SvgjsPath1553" d="M0,2 L14,6 L0,11 L0,2" fill="#323232" stroke="#323232" stroke-width="2"></path></marker><marker id="SvgjsMarker1556" markerWidth="16" markerHeight="12" refX="16" refY="6" viewBox="0 0 16 12" orient="auto" markerUnits="userSpaceOnUse" stroke-dasharray="0,0"><path id="SvgjsPath1557" d="M0,2 L14,6 L0,11 L0,2" fill="#323232" stroke="#323232" stroke-width="2"></path></marker><marker id="SvgjsMarker1566" markerWidth="16" markerHeight="12" refX="16" refY="6" viewBox="0 0 16 12" orient="auto" markerUnits="userSpaceOnUse" stroke-dasharray="0,0"><path id="SvgjsPath1567" d="M0,2 L14,6 L0,11 L0,2" fill="#323232" stroke="#323232" stroke-width="2"></path></marker><marker id="SvgjsMarker1590" markerWidth="16" markerHeight="12" refX="16" refY="6" viewBox="0 0 16 12" orient="auto" markerUnits="userSpaceOnUse" stroke-dasharray="0,0"><path id="SvgjsPath1591" d="M0,2 L14,6 L0,11 L0,2" fill="#323232" stroke="#323232" stroke-width="2"></path></marker><marker id="SvgjsMarker1594" markerWidth="16" markerHeight="12" refX="16" refY="6" viewBox="0 0 16 12" orient="auto" markerUnits="userSpaceOnUse" stroke-dasharray="0,0"><path id="SvgjsPath1595" d="M0,2 L14,6 L0,11 L0,2" fill="#323232" stroke="#323232" stroke-width="2"></path></marker><marker id="SvgjsMarker1604" markerWidth="16" markerHeight="12" refX="16" refY="6" viewBox="0 0 16 12" orient="auto" markerUnits="userSpaceOnUse" stroke-dasharray="0,0"><path id="SvgjsPath1605" d="M0,2 L14,6 L0,11 L0,2" fill="#323232" stroke="#323232" stroke-width="2"></path></marker><marker id="SvgjsMarker1608" markerWidth="16" markerHeight="12" refX="16" refY="6" viewBox="0 0 16 12" orient="auto" markerUnits="userSpaceOnUse" stroke-dasharray="0,0"><path id="SvgjsPath1609" d="M0,2 L14,6 L0,11 L0,2" fill="#323232" stroke="#323232" stroke-width="2"></path></marker><marker id="SvgjsMarker1644" markerWidth="16" markerHeight="12" refX="16" refY="6" viewBox="0 0 16 12" orient="auto" markerUnits="userSpaceOnUse" stroke-dasharray="0,0"><path id="SvgjsPath1645" d="M0,2 L14,6 L0,11 L0,2" fill="#323232" stroke="#323232" stroke-width="2"></path></marker><marker id="SvgjsMarker1648" markerWidth="16" markerHeight="12" refX="16" refY="6" viewBox="0 0 16 12" orient="auto" markerUnits="userSpaceOnUse" stroke-dasharray="0,0"><path id="SvgjsPath1649" d="M0,2 L14,6 L0,11 L0,2" fill="#323232" stroke="#323232" stroke-width="2"></path></marker><marker id="SvgjsMarker1652" markerWidth="16" markerHeight="12" refX="16" refY="6" viewBox="0 0 16 12" orient="auto" markerUnits="userSpaceOnUse" stroke-dasharray="0,0"><path id="SvgjsPath1653" d="M0,2 L14,6 L0,11 L0,2" fill="#323232" stroke="#323232" stroke-width="2"></path></marker><marker id="SvgjsMarker1656" markerWidth="16" markerHeight="12" refX="16" refY="6" viewBox="0 0 16 12" orient="auto" markerUnits="userSpaceOnUse" stroke-dasharray="0,0"><path id="SvgjsPath1657" d="M0,2 L14,6 L0,11 L0,2" fill="#323232" stroke="#323232" stroke-width="2"></path></marker><marker id="SvgjsMarker1666" markerWidth="16" markerHeight="12" refX="16" refY="6" viewBox="0 0 16 12" orient="auto" markerUnits="userSpaceOnUse" stroke-dasharray="0,0"><path id="SvgjsPath1667" d="M0,2 L14,6 L0,11 L0,2" fill="#323232" stroke="#323232" stroke-width="2"></path></marker><marker id="SvgjsMarker1692" markerWidth="16" markerHeight="12" refX="16" refY="6" viewBox="0 0 16 12" orient="auto" markerUnits="userSpaceOnUse" stroke-dasharray="0,0"><path id="SvgjsPath1693" d="M0,2 L14,6 L0,11 L0,2" fill="#323232" stroke="#323232" stroke-width="2"></path></marker><marker id="SvgjsMarker1710" markerWidth="16" markerHeight="12" refX="16" refY="6" viewBox="0 0 16 12" orient="auto" markerUnits="userSpaceOnUse" stroke-dasharray="0,0"><path id="SvgjsPath1711" d="M0,2 L14,6 L0,11 L0,2" fill="#323232" stroke="#323232" stroke-width="2"></path></marker><marker id="SvgjsMarker1722" markerWidth="16" markerHeight="12" refX="16" refY="6" viewBox="0 0 16 12" orient="auto" markerUnits="userSpaceOnUse" stroke-dasharray="0,0"><path id="SvgjsPath1723" d="M0,2 L14,6 L0,11 L0,2" fill="#323232" stroke="#323232" stroke-width="2"></path></marker><marker id="SvgjsMarker1736" markerWidth="16" markerHeight="12" refX="16" refY="6" viewBox="0 0 16 12" orient="auto" markerUnits="userSpaceOnUse" stroke-dasharray="0,0"><path id="SvgjsPath1737" d="M0,2 L14,6 L0,11 L0,2" fill="#323232" stroke="#323232" stroke-width="2"></path></marker><marker id="SvgjsMarker1750" markerWidth="16" markerHeight="12" refX="16" refY="6" viewBox="0 0 16 12" orient="auto" markerUnits="userSpaceOnUse" stroke-dasharray="0,0"><path id="SvgjsPath1751" d="M0,2 L14,6 L0,11 L0,2" fill="#323232" stroke="#323232" stroke-width="2"></path></marker><marker id="SvgjsMarker1768" markerWidth="16" markerHeight="12" refX="16" refY="6" viewBox="0 0 16 12" orient="auto" markerUnits="userSpaceOnUse" stroke-dasharray="0,0"><path id="SvgjsPath1769" d="M0,2 L14,6 L0,11 L0,2" fill="#323232" stroke="#323232" stroke-width="2"></path></marker><marker id="SvgjsMarker1790" markerWidth="16" markerHeight="12" refX="16" refY="6" viewBox="0 0 16 12" orient="auto" markerUnits="userSpaceOnUse" stroke-dasharray="0,0"><path id="SvgjsPath1791" d="M0,2 L14,6 L0,11 L0,2" fill="#323232" stroke="#323232" stroke-width="2"></path></marker><marker id="SvgjsMarker1802" markerWidth="16" markerHeight="12" refX="16" refY="6" viewBox="0 0 16 12" orient="auto" markerUnits="userSpaceOnUse" stroke-dasharray="0,0"><path id="SvgjsPath1803" d="M0,2 L14,6 L0,11 L0,2" fill="#323232" stroke="#323232" stroke-width="2"></path></marker><marker id="SvgjsMarker1806" markerWidth="16" markerHeight="12" refX="16" refY="6" viewBox="0 0 16 12" orient="auto" markerUnits="userSpaceOnUse" stroke-dasharray="0,0"><path id="SvgjsPath1807" d="M0,2 L14,6 L0,11 L0,2" fill="#323232" stroke="#323232" stroke-width="2"></path></marker><marker id="SvgjsMarker1810" markerWidth="16" markerHeight="12" refX="16" refY="6" viewBox="0 0 16 12" orient="auto" markerUnits="userSpaceOnUse" stroke-dasharray="0,0"><path id="SvgjsPath1811" d="M0,2 L14,6 L0,11 L0,2" fill="#323232" stroke="#323232" stroke-width="2"></path></marker><marker id="SvgjsMarker1822" markerWidth="16" markerHeight="12" refX="16" refY="6" viewBox="0 0 16 12" orient="auto" markerUnits="userSpaceOnUse" stroke-dasharray="0,0"><path id="SvgjsPath1823" d="M0,2 L14,6 L0,11 L0,2" fill="#323232" stroke="#323232" stroke-width="2"></path></marker><marker id="SvgjsMarker1830" markerWidth="16" markerHeight="12" refX="16" refY="6" viewBox="0 0 16 12" orient="auto" markerUnits="userSpaceOnUse" stroke-dasharray="0,0"><path id="SvgjsPath1831" d="M0,2 L14,6 L0,11 L0,2" fill="#323232" stroke="#323232" stroke-width="2"></path></marker><marker id="SvgjsMarker1834" markerWidth="16" markerHeight="12" refX="16" refY="6" viewBox="0 0 16 12" orient="auto" markerUnits="userSpaceOnUse" stroke-dasharray="0,0"><path id="SvgjsPath1835" d="M0,2 L14,6 L0,11 L0,2" fill="#323232" stroke="#323232" stroke-width="2"></path></marker><marker id="SvgjsMarker1838" markerWidth="16" markerHeight="12" refX="16" refY="6" viewBox="0 0 16 12" orient="auto" markerUnits="userSpaceOnUse" stroke-dasharray="0,0"><path id="SvgjsPath1839" d="M0,2 L14,6 L0,11 L0,2" fill="#323232" stroke="#323232" stroke-width="2"></path></marker><marker id="SvgjsMarker1852" markerWidth="16" markerHeight="12" refX="16" refY="6" viewBox="0 0 16 12" orient="auto" markerUnits="userSpaceOnUse" stroke-dasharray="0,0"><path id="SvgjsPath1853" d="M0,2 L14,6 L0,11 L0,2" fill="#323232" stroke="#323232" stroke-width="2"></path></marker><marker id="SvgjsMarker1860" markerWidth="16" markerHeight="12" refX="16" refY="6" viewBox="0 0 16 12" orient="auto" markerUnits="userSpaceOnUse" stroke-dasharray="0,0"><path id="SvgjsPath1861" d="M0,2 L14,6 L0,11 L0,2" fill="#323232" stroke="#323232" stroke-width="2"></path></marker><marker id="SvgjsMarker1864" markerWidth="16" markerHeight="12" refX="16" refY="6" viewBox="0 0 16 12" orient="auto" markerUnits="userSpaceOnUse" stroke-dasharray="0,0"><path id="SvgjsPath1865" d="M0,2 L14,6 L0,11 L0,2" fill="#323232" stroke="#323232" stroke-width="2"></path></marker><marker id="SvgjsMarker1902" markerWidth="16" markerHeight="12" refX="16" refY="6" viewBox="0 0 16 12" orient="auto" markerUnits="userSpaceOnUse" stroke-dasharray="0,0"><path id="SvgjsPath1903" d="M0,2 L14,6 L0,11 L0,2" fill="#323232" stroke="#323232" stroke-width="2"></path></marker><marker id="SvgjsMarker1920" markerWidth="16" markerHeight="12" refX="16" refY="6" viewBox="0 0 16 12" orient="auto" markerUnits="userSpaceOnUse" stroke-dasharray="0,0"><path id="SvgjsPath1921" d="M0,2 L14,6 L0,11 L0,2" fill="#323232" stroke="#323232" stroke-width="2"></path></marker><marker id="SvgjsMarker1960" markerWidth="16" markerHeight="12" refX="16" refY="6" viewBox="0 0 16 12" orient="auto" markerUnits="userSpaceOnUse" stroke-dasharray="0,0"><path id="SvgjsPath1961" d="M0,2 L14,6 L0,11 L0,2" fill="#323232" stroke="#323232" stroke-width="2"></path></marker></defs><g id="SvgjsG1486" transform="translate(175,336)"><path id="SvgjsPath1487" d="M 0 4Q 0 0 4 0L 1040 0Q 1044 0 1044 4L 1044 682Q 1044 686 1040 686L 4 686Q 0 686 0 682Z" stroke="rgba(50,50,50,1)" stroke-width="2" fill="none"></path><g id="SvgjsG1488"><text id="SvgjsText1489" font-family="微软雅黑" text-anchor="middle" font-size="25px" width="1024px" fill="#323232" font-weight="700" align="top" lineHeight="125%" anchor="middle" family="微软雅黑" size="25px" weight="700" font-style="" opacity="1" y="-5.125" transform="rotate(0)"><tspan id="SvgjsTspan1490" dy="31" x="522"><tspan id="SvgjsTspan1491" style="text-decoration:;">Stream&amp;Job Graph</tspan></tspan></text></g></g><g id="SvgjsG1492" transform="translate(195,601)"><path id="SvgjsPath1493" d="M 0 0L 1004 0L 1004 224L 0 224Z" stroke="rgba(50,50,50,1)" stroke-width="2" fill-opacity="1" fill="#ffffff"></path><g id="SvgjsG1494"><text id="SvgjsText1495" font-family="微软雅黑" text-anchor="start" font-size="18px" width="984px" fill="#323232" font-weight="700" align="middle" lineHeight="125%" anchor="start" family="微软雅黑" size="18px" weight="700" font-style="" opacity="1" y="98.75" transform="rotate(0)"><tspan id="SvgjsTspan1496" dy="22" x="10"><tspan id="SvgjsTspan1497" style="text-decoration:;">Job2</tspan></tspan></text></g></g><g id="SvgjsG1498" transform="translate(195,390)"><path id="SvgjsPath1499" d="M 0 0L 1004 0L 1004 127L 0 127Z" stroke="rgba(50,50,50,1)" stroke-width="2" fill-opacity="1" fill="#ffffff"></path><g id="SvgjsG1500"><text id="SvgjsText1501" font-family="微软雅黑" text-anchor="start" font-size="18px" width="984px" fill="#323232" font-weight="700" align="middle" lineHeight="125%" anchor="start" family="微软雅黑" size="18px" weight="700" font-style="" opacity="1" y="50.25" transform="rotate(0)"><tspan id="SvgjsTspan1502" dy="22" x="10"><tspan id="SvgjsTspan1503" style="text-decoration:;">Job1</tspan></tspan></text></g></g><g id="SvgjsG1504" transform="translate(175,25)"><path id="SvgjsPath1505" d="M 0 4Q 0 0 4 0L 1040 0Q 1044 0 1044 4L 1044 264Q 1044 268 1040 268L 4 268Q 0 268 0 264Z" stroke="rgba(50,50,50,1)" stroke-width="2" fill="none"></path><g id="SvgjsG1506"><text id="SvgjsText1507" font-family="微软雅黑" text-anchor="middle" font-size="25px" width="1024px" fill="#323232" font-weight="700" align="top" lineHeight="125%" anchor="middle" family="微软雅黑" size="25px" weight="700" font-style="" opacity="1" y="-5.125" transform="rotate(0)"><tspan id="SvgjsTspan1508" dy="31" x="522"><tspan id="SvgjsTspan1509" style="text-decoration:;">Raw Graph</tspan></tspan></text></g></g><g id="SvgjsG1510" transform="translate(220,76)"><path id="SvgjsPath1511" d="M 16.666666666666668 0L 83.33333333333333 0C 105.55555555555556 0 105.55555555555556 50 83.33333333333333 50L 16.666666666666668 50C -5.555555555555556 50 -5.555555555555556 0 16.666666666666668 0Z" stroke="rgba(50,50,50,1)" stroke-width="2" fill-opacity="1" fill="#ffffff"></path><g id="SvgjsG1512"><text id="SvgjsText1513" font-family="微软雅黑" text-anchor="middle" font-size="13px" width="80px" fill="#323232" font-weight="400" align="middle" lineHeight="125%" anchor="middle" family="微软雅黑" size="13px" weight="400" font-style="" opacity="1" y="15.375" transform="rotate(0)"><tspan id="SvgjsTspan1514" dy="16" x="50"><tspan id="SvgjsTspan1515" style="text-decoration:;">Start</tspan></tspan></text></g></g><g id="SvgjsG1516" transform="translate(373,66)"><path id="SvgjsPath1517" d="M 0 0L 100 0L 100 70L 0 70Z" stroke="rgba(50,50,50,1)" stroke-width="2" fill-opacity="1" fill="#ffffff"></path><g id="SvgjsG1518"><text id="SvgjsText1519" font-family="微软雅黑" text-anchor="middle" font-size="13px" width="80px" fill="#323232" font-weight="400" align="middle" lineHeight="125%" anchor="middle" family="微软雅黑" size="13px" weight="400" font-style="" opacity="1" y="25.375" transform="rotate(0)"><tspan id="SvgjsTspan1520" dy="16" x="50"><tspan id="SvgjsTspan1521" style="text-decoration:;">InputFormat</tspan></tspan></text></g></g><g id="SvgjsG1522" transform="translate(525,66)"><path id="SvgjsPath1523" d="M 0 0L 100 0L 100 70L 0 70Z" stroke="rgba(50,50,50,1)" stroke-width="2" fill-opacity="1" fill="#ffffff"></path><g id="SvgjsG1524"><text id="SvgjsText1525" font-family="微软雅黑" text-anchor="middle" font-size="13px" width="80px" fill="#323232" font-weight="400" align="middle" lineHeight="125%" anchor="middle" family="微软雅黑" size="13px" weight="400" font-style="" opacity="1" y="25.375" transform="rotate(0)"><tspan id="SvgjsTspan1526" dy="16" x="50"><tspan id="SvgjsTspan1527" style="text-decoration:;">Map</tspan></tspan></text></g></g><g id="SvgjsG1528" transform="translate(678,66)"><path id="SvgjsPath1529" d="M 0 0L 100 0L 100 70L 0 70Z" stroke="rgba(50,50,50,1)" stroke-width="2" fill-opacity="1" fill="#ffffff"></path><g id="SvgjsG1530"><text id="SvgjsText1531" font-family="微软雅黑" text-anchor="middle" font-size="13px" width="80px" fill="#323232" font-weight="400" align="middle" lineHeight="125%" anchor="middle" family="微软雅黑" size="13px" weight="400" font-style="" opacity="1" y="25.375" transform="rotate(0)"><tspan id="SvgjsTspan1532" dy="16" x="50"><tspan id="SvgjsTspan1533" style="text-decoration:;">Filter</tspan></tspan></text></g></g><g id="SvgjsG1534" transform="translate(844,66)"><path id="SvgjsPath1535" d="M 0 0L 100 0L 100 70L 0 70Z" stroke="rgba(50,50,50,1)" stroke-width="2" fill-opacity="1" fill="#ffffff"></path><g id="SvgjsG1536"><text id="SvgjsText1537" font-family="微软雅黑" text-anchor="middle" font-size="13px" width="80px" fill="#323232" font-weight="400" align="middle" lineHeight="125%" anchor="middle" family="微软雅黑" size="13px" weight="400" font-style="" opacity="1" y="17.375" transform="rotate(0)"><tspan id="SvgjsTspan1538" dy="16" x="50"><tspan id="SvgjsTspan1539" style="text-decoration:;">Watermark </tspan></tspan><tspan id="SvgjsTspan1540" dy="16" x="50"><tspan id="SvgjsTspan1541" style="text-decoration:;">Assigner</tspan></tspan></text></g></g><g id="SvgjsG1542"><path id="SvgjsPath1543" d="M320 101L346.5 101L346.5 101L373 101" stroke="#323232" stroke-width="2" fill="none" marker-end="url(#SvgjsMarker1544)"></path></g><g id="SvgjsG1546"><path id="SvgjsPath1547" d="M473 101L499 101L499 101L525 101" stroke="#323232" stroke-width="2" fill="none" marker-end="url(#SvgjsMarker1548)"></path></g><g id="SvgjsG1550"><path id="SvgjsPath1551" d="M625 101L651.5 101L651.5 101L678 101" stroke="#323232" stroke-width="2" fill="none" marker-end="url(#SvgjsMarker1552)"></path></g><g id="SvgjsG1554"><path id="SvgjsPath1555" d="M778 101L811 101L811 101L844 101" stroke="#323232" stroke-width="2" fill="none" marker-end="url(#SvgjsMarker1556)"></path></g><g id="SvgjsG1558" transform="translate(1000,66)"><path id="SvgjsPath1559" d="M 0 0L 100 0L 100 70L 0 70Z" stroke="rgba(50,50,50,1)" stroke-width="2" fill-opacity="1" fill="#ffffff"></path><g id="SvgjsG1560"><text id="SvgjsText1561" font-family="微软雅黑" text-anchor="middle" font-size="13px" width="80px" fill="#323232" font-weight="400" align="middle" lineHeight="125%" anchor="middle" family="微软雅黑" size="13px" weight="400" font-style="" opacity="1" y="25.375" transform="rotate(0)"><tspan id="SvgjsTspan1562" dy="16" x="50"><tspan id="SvgjsTspan1563" style="text-decoration:;">KeyBy</tspan></tspan></text></g></g><g id="SvgjsG1564"><path id="SvgjsPath1565" d="M944 101L972 101L972 101L1000 101" stroke="#323232" stroke-width="2" fill="none" marker-end="url(#SvgjsMarker1566)"></path></g><g id="SvgjsG1568" transform="translate(588,206)"><path id="SvgjsPath1569" d="M 0 0L 100 0L 100 70L 0 70Z" stroke="rgba(50,50,50,1)" stroke-width="2" fill-opacity="1" fill="#ffffff"></path><g id="SvgjsG1570"><text id="SvgjsText1571" font-family="微软雅黑" text-anchor="middle" font-size="13px" width="80px" fill="#323232" font-weight="400" align="middle" lineHeight="125%" anchor="middle" family="微软雅黑" size="13px" weight="400" font-style="" opacity="1" y="17.375" transform="rotate(0)"><tspan id="SvgjsTspan1572" dy="16" x="50"><tspan id="SvgjsTspan1573" style="text-decoration:;">Window </tspan></tspan><tspan id="SvgjsTspan1574" dy="16" x="50"><tspan id="SvgjsTspan1575" style="text-decoration:;">Assigner</tspan></tspan></text></g></g><g id="SvgjsG1576" transform="translate(754,206)"><path id="SvgjsPath1577" d="M 0 0L 100 0L 100 70L 0 70Z" stroke="rgba(50,50,50,1)" stroke-width="2" fill-opacity="1" fill="#ffffff"></path><g id="SvgjsG1578"><text id="SvgjsText1579" font-family="微软雅黑" text-anchor="middle" font-size="13px" width="80px" fill="#323232" font-weight="400" align="middle" lineHeight="125%" anchor="middle" family="微软雅黑" size="13px" weight="400" font-style="" opacity="1" y="25.375" transform="rotate(0)"><tspan id="SvgjsTspan1580" dy="16" x="50"><tspan id="SvgjsTspan1581" style="text-decoration:;">Reduce</tspan></tspan></text></g></g><g id="SvgjsG1582" transform="translate(910,206)"><path id="SvgjsPath1583" d="M 0 0L 105 0L 105 70L 0 70Z" stroke="rgba(50,50,50,1)" stroke-width="2" fill-opacity="1" fill="#ffffff"></path><g id="SvgjsG1584"><text id="SvgjsText1585" font-family="微软雅黑" text-anchor="middle" font-size="13px" width="85px" fill="#323232" font-weight="400" align="middle" lineHeight="125%" anchor="middle" family="微软雅黑" size="13px" weight="400" font-style="" opacity="1" y="25.375" transform="rotate(0)"><tspan id="SvgjsTspan1586" dy="16" x="52.5"><tspan id="SvgjsTspan1587" style="text-decoration:;">OutputFormat</tspan></tspan></text></g></g><g id="SvgjsG1588"><path id="SvgjsPath1589" d="M688 241L721 241L721 241L754 241" stroke="#323232" stroke-width="2" fill="none" marker-end="url(#SvgjsMarker1590)"></path></g><g id="SvgjsG1592"><path id="SvgjsPath1593" d="M854 241L882 241L882 241L910 241" stroke="#323232" stroke-width="2" fill="none" marker-end="url(#SvgjsMarker1594)"></path></g><g id="SvgjsG1596" transform="translate(1093,216)"><path id="SvgjsPath1597" d="M 16.666666666666668 0L 83.33333333333333 0C 105.55555555555556 0 105.55555555555556 50 83.33333333333333 50L 16.666666666666668 50C -5.555555555555556 50 -5.555555555555556 0 16.666666666666668 0Z" stroke="rgba(50,50,50,1)" stroke-width="2" fill-opacity="1" fill="#ffffff"></path><g id="SvgjsG1598"><text id="SvgjsText1599" font-family="微软雅黑" text-anchor="middle" font-size="13px" width="80px" fill="#323232" font-weight="400" align="middle" lineHeight="125%" anchor="middle" family="微软雅黑" size="13px" weight="400" font-style="" opacity="1" y="15.375" transform="rotate(0)"><tspan id="SvgjsTspan1600" dy="16" x="50"><tspan id="SvgjsTspan1601" style="text-decoration:;">End</tspan></tspan></text></g></g><g id="SvgjsG1602"><path id="SvgjsPath1603" d="M1015 241L1054 241L1054 241L1093 241" stroke="#323232" stroke-width="2" fill="none" marker-end="url(#SvgjsMarker1604)"></path></g><g id="SvgjsG1606"><path id="SvgjsPath1607" d="M1100 101L1130 101L1130 171L558 171L558 241L588 241" stroke="#323232" stroke-width="2" fill="none" marker-end="url(#SvgjsMarker1608)"></path></g><g id="SvgjsG1610" transform="translate(275,433)"><path id="SvgjsPath1611" d="M 16.666666666666668 0L 83.33333333333333 0C 105.55555555555556 0 105.55555555555556 50 83.33333333333333 50L 16.666666666666668 50C -5.555555555555556 50 -5.555555555555556 0 16.666666666666668 0Z" stroke="rgba(50,50,50,1)" stroke-width="2" fill-opacity="1" fill="#ffffff"></path><g id="SvgjsG1612"><text id="SvgjsText1613" font-family="微软雅黑" text-anchor="middle" font-size="13px" width="80px" fill="#323232" font-weight="400" align="middle" lineHeight="125%" anchor="middle" family="微软雅黑" size="13px" weight="400" font-style="" opacity="1" y="15.375" transform="rotate(0)"><tspan id="SvgjsTspan1614" dy="16" x="50"><tspan id="SvgjsTspan1615" style="text-decoration:;">Start</tspan></tspan></text></g></g><g id="SvgjsG1616" transform="translate(404,423)"><path id="SvgjsPath1617" d="M 0 0L 100 0L 100 70L 0 70Z" stroke="rgba(50,50,50,1)" stroke-width="2" fill-opacity="1" fill="#ffffff"></path><g id="SvgjsG1618"><text id="SvgjsText1619" font-family="微软雅黑" text-anchor="middle" font-size="13px" width="80px" fill="#323232" font-weight="400" align="middle" lineHeight="125%" anchor="middle" family="微软雅黑" size="13px" weight="400" font-style="" opacity="1" y="25.375" transform="rotate(0)"><tspan id="SvgjsTspan1620" dy="16" x="50"><tspan id="SvgjsTspan1621" style="text-decoration:;">InputFormat</tspan></tspan></text></g></g><g id="SvgjsG1622" transform="translate(530,423)"><path id="SvgjsPath1623" d="M 0 0L 100 0L 100 70L 0 70Z" stroke="rgba(50,50,50,1)" stroke-width="2" fill-opacity="1" fill="#ffffff"></path><g id="SvgjsG1624"><text id="SvgjsText1625" font-family="微软雅黑" text-anchor="middle" font-size="13px" width="80px" fill="#323232" font-weight="400" align="middle" lineHeight="125%" anchor="middle" family="微软雅黑" size="13px" weight="400" font-style="" opacity="1" y="25.375" transform="rotate(0)"><tspan id="SvgjsTspan1626" dy="16" x="50"><tspan id="SvgjsTspan1627" style="text-decoration:;">Map</tspan></tspan></text></g></g><g id="SvgjsG1628" transform="translate(663,423)"><path id="SvgjsPath1629" d="M 0 0L 100 0L 100 70L 0 70Z" stroke="rgba(50,50,50,1)" stroke-width="2" fill-opacity="1" fill="#ffffff"></path><g id="SvgjsG1630"><text id="SvgjsText1631" font-family="微软雅黑" text-anchor="middle" font-size="13px" width="80px" fill="#323232" font-weight="400" align="middle" lineHeight="125%" anchor="middle" family="微软雅黑" size="13px" weight="400" font-style="" opacity="1" y="25.375" transform="rotate(0)"><tspan id="SvgjsTspan1632" dy="16" x="50"><tspan id="SvgjsTspan1633" style="text-decoration:;">Filter</tspan></tspan></text></g></g><g id="SvgjsG1634" transform="translate(800,423)"><path id="SvgjsPath1635" d="M 0 0L 100 0L 100 70L 0 70Z" stroke="rgba(50,50,50,1)" stroke-width="2" fill-opacity="1" fill="#ffffff"></path><g id="SvgjsG1636"><text id="SvgjsText1637" font-family="微软雅黑" text-anchor="middle" font-size="13px" width="80px" fill="#323232" font-weight="400" align="middle" lineHeight="125%" anchor="middle" family="微软雅黑" size="13px" weight="400" font-style="" opacity="1" y="17.375" transform="rotate(0)"><tspan id="SvgjsTspan1638" dy="16" x="50"><tspan id="SvgjsTspan1639" style="text-decoration:;">Watermark </tspan></tspan><tspan id="SvgjsTspan1640" dy="16" x="50"><tspan id="SvgjsTspan1641" style="text-decoration:;">Assigner</tspan></tspan></text></g></g><g id="SvgjsG1642"><path id="SvgjsPath1643" d="M375 458L389.5 458L389.5 458L404 458" stroke="#323232" stroke-width="2" fill="none" marker-end="url(#SvgjsMarker1644)"></path></g><g id="SvgjsG1646"><path id="SvgjsPath1647" d="M504 458L517 458L517 458L530 458" stroke="#323232" stroke-width="2" fill="none" marker-end="url(#SvgjsMarker1648)"></path></g><g id="SvgjsG1650"><path id="SvgjsPath1651" d="M630 458L646.5 458L646.5 458L663 458" stroke="#323232" stroke-width="2" fill="none" marker-end="url(#SvgjsMarker1652)"></path></g><g id="SvgjsG1654"><path id="SvgjsPath1655" d="M763 458L781.5 458L781.5 458L800 458" stroke="#323232" stroke-width="2" fill="none" marker-end="url(#SvgjsMarker1656)"></path></g><g id="SvgjsG1658" transform="translate(929,423)"><path id="SvgjsPath1659" d="M 0 0L 100 0L 100 70L 0 70Z" stroke="rgba(50,50,50,1)" stroke-width="2" fill-opacity="1" fill="#ffffff"></path><g id="SvgjsG1660"><text id="SvgjsText1661" font-family="微软雅黑" text-anchor="middle" font-size="13px" width="80px" fill="#323232" font-weight="400" align="middle" lineHeight="125%" anchor="middle" family="微软雅黑" size="13px" weight="400" font-style="" opacity="1" y="25.375" transform="rotate(0)"><tspan id="SvgjsTspan1662" dy="16" x="50"><tspan id="SvgjsTspan1663" style="text-decoration:;">KeyBy</tspan></tspan></text></g></g><g id="SvgjsG1664"><path id="SvgjsPath1665" d="M900 458L914.5 458L914.5 458L929 458" stroke="#323232" stroke-width="2" fill="none" marker-end="url(#SvgjsMarker1666)"></path></g><g id="SvgjsG1668" transform="translate(425,631)"><path id="SvgjsPath1669" d="M 0 0L 100 0L 100 70L 0 70Z" stroke="rgba(50,50,50,1)" stroke-width="2" fill-opacity="1" fill="#ffffff"></path><g id="SvgjsG1670"><text id="SvgjsText1671" font-family="微软雅黑" text-anchor="middle" font-size="13px" width="80px" fill="#323232" font-weight="400" align="middle" lineHeight="125%" anchor="middle" family="微软雅黑" size="13px" weight="400" font-style="" opacity="1" y="17.375" transform="rotate(0)"><tspan id="SvgjsTspan1672" dy="16" x="50"><tspan id="SvgjsTspan1673" style="text-decoration:;">Window </tspan></tspan><tspan id="SvgjsTspan1674" dy="16" x="50"><tspan id="SvgjsTspan1675" style="text-decoration:;">Assigner</tspan></tspan></text></g></g><g id="SvgjsG1676" transform="translate(568,631)"><path id="SvgjsPath1677" d="M 0 0L 100 0L 100 70L 0 70Z" stroke="rgba(50,50,50,1)" stroke-width="2" fill-opacity="1" fill="#ffffff"></path><g id="SvgjsG1678"><text id="SvgjsText1679" font-family="微软雅黑" text-anchor="middle" font-size="13px" width="80px" fill="#323232" font-weight="400" align="middle" lineHeight="125%" anchor="middle" family="微软雅黑" size="13px" weight="400" font-style="" opacity="1" y="17.375" transform="rotate(0)"><tspan id="SvgjsTspan1680" dy="16" x="50"><tspan id="SvgjsTspan1681" style="text-decoration:;">Reduce+Key</tspan></tspan><tspan id="SvgjsTspan1682" dy="16" x="50"><tspan id="SvgjsTspan1683" style="text-decoration:;">By</tspan></tspan></text></g></g><g id="SvgjsG1684" transform="translate(898,631)"><path id="SvgjsPath1685" d="M 0 0L 105 0L 105 70L 0 70Z" stroke="rgba(50,50,50,1)" stroke-width="2" fill-opacity="1" fill="#ffffff"></path><g id="SvgjsG1686"><text id="SvgjsText1687" font-family="微软雅黑" text-anchor="middle" font-size="13px" width="85px" fill="#323232" font-weight="400" align="middle" lineHeight="125%" anchor="middle" family="微软雅黑" size="13px" weight="400" font-style="" opacity="1" y="25.375" transform="rotate(0)"><tspan id="SvgjsTspan1688" dy="16" x="52.5"><tspan id="SvgjsTspan1689" style="text-decoration:;">OutputFormat</tspan></tspan></text></g></g><g id="SvgjsG1690"><path id="SvgjsPath1691" d="M525 666L546.5 666L546.5 666L568 666" stroke="#323232" stroke-width="2" fill="none" marker-end="url(#SvgjsMarker1692)"></path></g><g id="SvgjsG1694" transform="translate(1054,641)"><path id="SvgjsPath1695" d="M 16.666666666666668 0L 83.33333333333333 0C 105.55555555555556 0 105.55555555555556 50 83.33333333333333 50L 16.666666666666668 50C -5.555555555555556 50 -5.555555555555556 0 16.666666666666668 0Z" stroke="rgba(50,50,50,1)" stroke-width="2" fill-opacity="1" fill="#ffffff"></path><g id="SvgjsG1696"><text id="SvgjsText1697" font-family="微软雅黑" text-anchor="middle" font-size="13px" width="80px" fill="#323232" font-weight="400" align="middle" lineHeight="125%" anchor="middle" family="微软雅黑" size="13px" weight="400" font-style="" opacity="1" y="15.375" transform="rotate(0)"><tspan id="SvgjsTspan1698" dy="16" x="50"><tspan id="SvgjsTspan1699" style="text-decoration:;">End</tspan></tspan></text></g></g><g id="SvgjsG1700" transform="translate(1055,423)"><path id="SvgjsPath1701" d="M 0 0L 105 0L 105 70L 0 70Z" stroke="rgba(204,102,0,1)" stroke-width="2" fill-opacity="1" fill="#ffffff"></path><g id="SvgjsG1702"><text id="SvgjsText1703" font-family="微软雅黑" text-anchor="middle" font-size="13px" width="85px" fill="#d32f2f" font-weight="700" align="middle" lineHeight="125%" anchor="middle" family="微软雅黑" size="13px" weight="700" font-style="" opacity="1" y="17.375" transform="rotate(0)"><tspan id="SvgjsTspan1704" dy="16" x="52.5"><tspan id="SvgjsTspan1705" style="text-decoration:;">OutputForma</tspan></tspan><tspan id="SvgjsTspan1706" dy="16" x="52.5"><tspan id="SvgjsTspan1707" style="text-decoration:;">t(Network)</tspan></tspan></text></g></g><g id="SvgjsG1708"><path id="SvgjsPath1709" d="M1029 458L1042 458L1042 458L1055 458" stroke="#323232" stroke-width="2" fill="none" marker-end="url(#SvgjsMarker1710)"></path></g><g id="SvgjsG1712" transform="translate(279,631)"><path id="SvgjsPath1713" d="M 0 0L 100 0L 100 70L 0 70Z" stroke="rgba(204,102,0,1)" stroke-width="2" fill-opacity="1" fill="#ffffff"></path><g id="SvgjsG1714"><text id="SvgjsText1715" font-family="微软雅黑" text-anchor="middle" font-size="13px" width="80px" fill="#d32f2f" font-weight="700" align="middle" lineHeight="125%" anchor="middle" family="微软雅黑" size="13px" weight="700" font-style="" opacity="1" y="17.375" transform="rotate(0)"><tspan id="SvgjsTspan1716" dy="16" x="50"><tspan id="SvgjsTspan1717" style="text-decoration:;">InputFormat(</tspan></tspan><tspan id="SvgjsTspan1718" dy="16" x="50"><tspan id="SvgjsTspan1719" style="text-decoration:;">Network)</tspan></tspan></text></g></g><g id="SvgjsG1720"><path id="SvgjsPath1721" d="M379 666L402 666L402 666L425 666" stroke="#323232" stroke-width="2" fill="none" marker-end="url(#SvgjsMarker1722)"></path></g><g id="SvgjsG1724" transform="translate(258,322)"><path id="SvgjsPath1725" d="M 0 0L 239 0L 255 16L 255 38L 0 38L 0 0Z" stroke="none" fill-opacity="1" fill="#ffffaa"></path><path id="SvgjsPath1726" d="M 239 0L 239 16L 255 16Z" stroke="none" fill-opacity="1" fill="#cdcdcd"></path><path id="SvgjsPath1727" d="M 0 0L 239 0L 255 16L 255 38L 0 38L 0 0Z" stroke="none" fill="none"></path><g id="SvgjsG1728"><text id="SvgjsText1729" font-family="微软雅黑" text-anchor="start" font-size="13px" width="235px" fill="#323232" font-weight="400" align="middle" lineHeight="125%" anchor="start" family="微软雅黑" size="13px" weight="400" font-style="" opacity="1" y="1.375" transform="rotate(0)"><tspan id="SvgjsTspan1730" dy="16" x="10"><tspan id="SvgjsTspan1731" style="text-decoration:;">定时产生StreamStatus标记写到流中</tspan></tspan><tspan id="SvgjsTspan1732" dy="16" x="10"><tspan id="SvgjsTspan1733" style="text-decoration:;">用于空闲情况下触发WaterMark</tspan></tspan></text></g></g><g id="SvgjsG1734"><path id="SvgjsPath1735" d="M385.5 360L454 423" stroke="#323232" stroke-width="2" fill="none" marker-end="url(#SvgjsMarker1736)"></path></g><g id="SvgjsG1738" transform="translate(816,322.5)"><path id="SvgjsPath1739" d="M 0 0L 100 0L 116 16L 116 44L 0 44L 0 0Z" stroke="none" fill-opacity="1" fill="#ffffaa"></path><path id="SvgjsPath1740" d="M 100 0L 100 16L 116 16Z" stroke="none" fill-opacity="1" fill="#cdcdcd"></path><path id="SvgjsPath1741" d="M 0 0L 100 0L 116 16L 116 44L 0 44L 0 0Z" stroke="none" fill="none"></path><g id="SvgjsG1742"><text id="SvgjsText1743" font-family="微软雅黑" text-anchor="middle" font-size="13px" width="96px" fill="#323232" font-weight="400" align="middle" lineHeight="125%" anchor="middle" family="微软雅黑" size="13px" weight="400" font-style="" opacity="1" y="4.375" transform="rotate(0)"><tspan id="SvgjsTspan1744" dy="16" x="58"><tspan id="SvgjsTspan1745" style="text-decoration:;">计算WaterMark</tspan></tspan><tspan id="SvgjsTspan1746" dy="16" x="58"><tspan id="SvgjsTspan1747" style="text-decoration:;">并写到流中</tspan></tspan></text></g></g><g id="SvgjsG1748"><path id="SvgjsPath1749" d="M874 366.5L850 423" stroke="#323232" stroke-width="2" fill="none" marker-end="url(#SvgjsMarker1750)"></path></g><g id="SvgjsG1752" transform="translate(945,305)"><path id="SvgjsPath1753" d="M 0 0L 183 0L 199 16L 199 79L 0 79L 0 0Z" stroke="none" fill-opacity="1" fill="#ffffaa"></path><path id="SvgjsPath1754" d="M 183 0L 183 16L 199 16Z" stroke="none" fill-opacity="1" fill="#cdcdcd"></path><path id="SvgjsPath1755" d="M 0 0L 183 0L 199 16L 199 79L 0 79L 0 0Z" stroke="none" fill="none"></path><g id="SvgjsG1756"><text id="SvgjsText1757" font-family="微软雅黑" text-anchor="start" font-size="13px" width="179px" fill="#323232" font-weight="400" align="middle" lineHeight="125%" anchor="start" family="微软雅黑" size="13px" weight="400" font-style="" opacity="1" y="5.875" transform="rotate(0)"><tspan id="SvgjsTspan1758" dy="16" x="10"><tspan id="SvgjsTspan1759" style="text-decoration:;">1、如果是Record，计算并标记</tspan></tspan><tspan id="SvgjsTspan1760" dy="16" x="10"><tspan id="SvgjsTspan1761" style="text-decoration:;">Partition_num</tspan></tspan><tspan id="SvgjsTspan1762" dy="16" x="10"><tspan id="SvgjsTspan1763" style="text-decoration:;">2、如果是WaterMark，复制广</tspan></tspan><tspan id="SvgjsTspan1764" dy="16" x="10"><tspan id="SvgjsTspan1765" style="text-decoration:;">播到所有下游管道</tspan></tspan></text></g></g><g id="SvgjsG1766"><path id="SvgjsPath1767" d="M1044.5 384L979 423" stroke="#323232" stroke-width="2" fill="none" marker-end="url(#SvgjsMarker1768)"></path></g><g id="SvgjsG1770" transform="translate(195,869)"><path id="SvgjsPath1771" d="M 0 0L 1004 0L 1004 130L 0 130Z" stroke="rgba(50,50,50,1)" stroke-width="2" fill-opacity="1" fill="#ffffff"></path><g id="SvgjsG1772"><text id="SvgjsText1773" font-family="微软雅黑" text-anchor="start" font-size="18px" width="984px" fill="#323232" font-weight="700" align="middle" lineHeight="125%" anchor="start" family="微软雅黑" size="18px" weight="700" font-style="" opacity="1" y="51.75" transform="rotate(0)"><tspan id="SvgjsTspan1774" dy="22" x="10"><tspan id="SvgjsTspan1775" style="text-decoration:;">Job3</tspan></tspan></text></g></g><g id="SvgjsG1776" transform="translate(898,899)"><path id="SvgjsPath1777" d="M 0 0L 105 0L 105 70L 0 70Z" stroke="rgba(50,50,50,1)" stroke-width="2" fill-opacity="1" fill="#ffffff"></path><g id="SvgjsG1778"><text id="SvgjsText1779" font-family="微软雅黑" text-anchor="middle" font-size="13px" width="85px" fill="#323232" font-weight="400" align="middle" lineHeight="125%" anchor="middle" family="微软雅黑" size="13px" weight="400" font-style="" opacity="1" y="25.375" transform="rotate(0)"><tspan id="SvgjsTspan1780" dy="16" x="52.5"><tspan id="SvgjsTspan1781" style="text-decoration:;">OutputFormat</tspan></tspan></text></g></g><g id="SvgjsG1782" transform="translate(1054,909)"><path id="SvgjsPath1783" d="M 16.666666666666668 0L 83.33333333333333 0C 105.55555555555556 0 105.55555555555556 50 83.33333333333333 50L 16.666666666666668 50C -5.555555555555556 50 -5.555555555555556 0 16.666666666666668 0Z" stroke="rgba(50,50,50,1)" stroke-width="2" fill-opacity="1" fill="#ffffff"></path><g id="SvgjsG1784"><text id="SvgjsText1785" font-family="微软雅黑" text-anchor="middle" font-size="13px" width="80px" fill="#323232" font-weight="400" align="middle" lineHeight="125%" anchor="middle" family="微软雅黑" size="13px" weight="400" font-style="" opacity="1" y="15.375" transform="rotate(0)"><tspan id="SvgjsTspan1786" dy="16" x="50"><tspan id="SvgjsTspan1787" style="text-decoration:;">End</tspan></tspan></text></g></g><g id="SvgjsG1788"><path id="SvgjsPath1789" d="M1003 934L1028.5 934L1028.5 934L1054 934" stroke="#323232" stroke-width="2" fill="none" marker-end="url(#SvgjsMarker1790)"></path></g><g id="SvgjsG1792" transform="translate(729,899)"><path id="SvgjsPath1793" d="M 0 0L 100 0L 100 70L 0 70Z" stroke="rgba(204,102,0,1)" stroke-width="2" fill-opacity="1" fill="#ffffff"></path><g id="SvgjsG1794"><text id="SvgjsText1795" font-family="微软雅黑" text-anchor="middle" font-size="13px" width="80px" fill="#d32f2f" font-weight="700" align="middle" lineHeight="125%" anchor="middle" family="微软雅黑" size="13px" weight="700" font-style="" opacity="1" y="17.375" transform="rotate(0)"><tspan id="SvgjsTspan1796" dy="16" x="50"><tspan id="SvgjsTspan1797" style="text-decoration:;">InputFormat(</tspan></tspan><tspan id="SvgjsTspan1798" dy="16" x="50"><tspan id="SvgjsTspan1799" style="text-decoration:;">Memory)</tspan></tspan></text></g></g><g id="SvgjsG1800"><path id="SvgjsPath1801" d="M578 594L618 631" stroke="#323232" stroke-width="2" fill="none" marker-end="url(#SvgjsMarker1802)"></path></g><g id="SvgjsG1804"><path id="SvgjsPath1805" d="M369.5 581L475 631" stroke="#323232" stroke-width="2" fill="none" marker-end="url(#SvgjsMarker1806)"></path></g><g id="SvgjsG1808"><path id="SvgjsPath1809" d="M1003 666L1054 666" stroke="#323232" stroke-width="2" fill="none" marker-end="url(#SvgjsMarker1810)"></path></g><g id="SvgjsG1812" transform="translate(734,631)"><path id="SvgjsPath1813" d="M 0 35L 45 0L 90 35L 45 70L 0 35Z" stroke="rgba(50,50,50,1)" stroke-width="2" fill-opacity="1" fill="#ffffff"></path><g id="SvgjsG1814"><text id="SvgjsText1815" font-family="微软雅黑" text-anchor="middle" font-size="13px" width="70px" fill="#323232" font-weight="400" align="middle" lineHeight="125%" anchor="middle" family="微软雅黑" size="13px" weight="400" font-style="" opacity="1" y="17.375" transform="rotate(0)"><tspan id="SvgjsTspan1816" dy="16" x="45"><tspan id="SvgjsTspan1817" style="text-decoration:;">是否窗口计</tspan></tspan><tspan id="SvgjsTspan1818" dy="16" x="45"><tspan id="SvgjsTspan1819" style="text-decoration:;">算</tspan></tspan></text></g></g><g id="SvgjsG1820"><path id="SvgjsPath1821" d="M824 666L898 666" stroke="#323232" stroke-width="2" fill="none" marker-end="url(#SvgjsMarker1822)"></path><rect id="SvgjsRect1824" width="43" height="16" x="839.5" y="658" fill="#ffffff"></rect><text id="SvgjsText1825" font-family="微软雅黑" text-anchor="middle" font-size="13px" width="43px" fill="#323232" font-weight="400" align="top" lineHeight="16px" anchor="middle" family="微软雅黑" size="13px" weight="400" font-style="" opacity="1" y="656.375" transform="rotate(0)"><tspan id="SvgjsTspan1826" dy="16" x="861"><tspan id="SvgjsTspan1827" style="text-decoration:;">Record</tspan></tspan></text></g><g id="SvgjsG1828"><path id="SvgjsPath1829" d="M668 666L734 666" stroke="#323232" stroke-width="2" fill="none" marker-end="url(#SvgjsMarker1830)"></path></g><g id="SvgjsG1832"><path id="SvgjsPath1833" d="M829 934L898 934" stroke="#323232" stroke-width="2" fill="none" marker-end="url(#SvgjsMarker1834)"></path></g><g id="SvgjsG1836"><path id="SvgjsPath1837" d="M850.5 598L779 631" stroke="#323232" stroke-width="2" fill="none" marker-end="url(#SvgjsMarker1838)"></path></g><g id="SvgjsG1840" transform="translate(726.5,738)"><path id="SvgjsPath1841" d="M 0 0L 105 0L 105 70L 0 70Z" stroke="rgba(204,102,0,1)" stroke-width="2" fill-opacity="1" fill="#ffffff"></path><g id="SvgjsG1842"><text id="SvgjsText1843" font-family="微软雅黑" text-anchor="middle" font-size="13px" width="85px" fill="#d32f2f" font-weight="700" align="middle" lineHeight="125%" anchor="middle" family="微软雅黑" size="13px" weight="700" font-style="" opacity="1" y="9.375" transform="rotate(0)"><tspan id="SvgjsTspan1844" dy="16" x="52.5"><tspan id="SvgjsTspan1845" style="text-decoration:;">OutputForma</tspan></tspan><tspan id="SvgjsTspan1846" dy="16" x="52.5"><tspan id="SvgjsTspan1847" style="text-decoration:;">t</tspan></tspan><tspan id="SvgjsTspan1848" dy="16" x="52.5"><tspan id="SvgjsTspan1849" style="text-decoration:;">(Memory)</tspan></tspan></text></g></g><g id="SvgjsG1850"><path id="SvgjsPath1851" d="M779 701L779 738" stroke="#323232" stroke-width="2" fill="none" marker-end="url(#SvgjsMarker1852)"></path><rect id="SvgjsRect1854" width="66" height="16" x="746" y="711.5" fill="#ffffff"></rect><text id="SvgjsText1855" font-family="微软雅黑" text-anchor="middle" font-size="13px" width="66px" fill="#323232" font-weight="400" align="top" lineHeight="16px" anchor="middle" family="微软雅黑" size="13px" weight="400" font-style="" opacity="1" y="709.875" transform="rotate(0)"><tspan id="SvgjsTspan1856" dy="16" x="779"><tspan id="SvgjsTspan1857" style="text-decoration:;">Watermark</tspan></tspan></text></g><g id="SvgjsG1858"><path id="SvgjsPath1859" d="M779 808L779 899" stroke="#323232" stroke-width="2" fill="none" marker-end="url(#SvgjsMarker1860)"></path></g><g id="SvgjsG1862"><path id="SvgjsPath1863" d="M1160 458L1190 458L1190 562L249 562L249 666L279 666" stroke="#323232" stroke-width="2" fill="none" marker-end="url(#SvgjsMarker1864)"></path></g><g id="SvgjsG1866" transform="translate(289,541)"><path id="SvgjsPath1867" d="M 0 0L 145 0L 161 16L 161 40L 0 40L 0 0Z" stroke="none" fill-opacity="1" fill="#ffffaa"></path><path id="SvgjsPath1868" d="M 145 0L 145 16L 161 16Z" stroke="none" fill-opacity="1" fill="#cdcdcd"></path><path id="SvgjsPath1869" d="M 0 0L 145 0L 161 16L 161 40L 0 40L 0 0Z" stroke="none" fill="none"></path><g id="SvgjsG1870"><text id="SvgjsText1871" font-family="微软雅黑" text-anchor="middle" font-size="13px" width="141px" fill="#323232" font-weight="400" align="middle" lineHeight="125%" anchor="middle" family="微软雅黑" size="13px" weight="400" font-style="" opacity="1" y="10.375" transform="rotate(0)"><tspan id="SvgjsTspan1872" dy="16" x="80.5"><tspan id="SvgjsTspan1873" style="text-decoration:;">计算Record所属窗口</tspan></tspan></text></g></g><g id="SvgjsG1874" transform="translate(465,505)"><path id="SvgjsPath1875" d="M 0 0L 210 0L 226 16L 226 89L 0 89L 0 0Z" stroke="none" fill-opacity="1" fill="#ffffaa"></path><path id="SvgjsPath1876" d="M 210 0L 210 16L 226 16Z" stroke="none" fill-opacity="1" fill="#cdcdcd"></path><path id="SvgjsPath1877" d="M 0 0L 210 0L 226 16L 226 89L 0 89L 0 0Z" stroke="none" fill="none"></path><g id="SvgjsG1878"><text id="SvgjsText1879" font-family="微软雅黑" text-anchor="start" font-size="13px" width="206px" fill="#323232" font-weight="400" align="middle" lineHeight="125%" anchor="start" family="微软雅黑" size="13px" weight="400" font-style="" opacity="1" y="2.875" transform="rotate(0)"><tspan id="SvgjsTspan1880" dy="16" x="10"><tspan id="SvgjsTspan1881" style="text-decoration:;">1、如果是Record，进行窗口聚合，</tspan></tspan><tspan id="SvgjsTspan1882" dy="16" x="10"><tspan id="SvgjsTspan1883" style="text-decoration:;">并进行缓存</tspan></tspan><tspan id="SvgjsTspan1884" dy="16" x="10"><tspan id="SvgjsTspan1885" style="text-decoration:;">2、如果是WaterMark，进行drop窗</tspan></tspan><tspan id="SvgjsTspan1886" dy="16" x="10"><tspan id="SvgjsTspan1887" style="text-decoration:;">口计算，并标记drop的窗口到</tspan></tspan><tspan id="SvgjsTspan1888" dy="16" x="10"><tspan id="SvgjsTspan1889" style="text-decoration:;">WaterMark上，发送到下游</tspan></tspan></text></g></g><g id="SvgjsG1890" transform="translate(1021.5,721)"><path id="SvgjsPath1891" d="M 0 0L 149 0L 165 16L 165 49L 0 49L 0 0Z" stroke="none" fill-opacity="1" fill="#ffffaa"></path><path id="SvgjsPath1892" d="M 149 0L 149 16L 165 16Z" stroke="none" fill-opacity="1" fill="#cdcdcd"></path><path id="SvgjsPath1893" d="M 0 0L 149 0L 165 16L 165 49L 0 49L 0 0Z" stroke="none" fill="none"></path><g id="SvgjsG1894"><text id="SvgjsText1895" font-family="微软雅黑" text-anchor="start" font-size="13px" width="145px" fill="#323232" font-weight="400" align="middle" lineHeight="125%" anchor="start" family="微软雅黑" size="13px" weight="400" font-style="" opacity="1" y="6.875" transform="rotate(0)"><tspan id="SvgjsTspan1896" dy="16" x="10"><tspan id="SvgjsTspan1897" style="text-decoration:;">非窗口计算模式下，直接</tspan></tspan><tspan id="SvgjsTspan1898" dy="16" x="10"><tspan id="SvgjsTspan1899" style="text-decoration:;">顺序调用输出</tspan></tspan></text></g></g><g id="SvgjsG1900"><path id="SvgjsPath1901" d="M1104 721L950.5 701" stroke="#323232" stroke-width="2" fill="none" marker-end="url(#SvgjsMarker1902)"></path></g><g id="SvgjsG1904" transform="translate(846,796)"><path id="SvgjsPath1905" d="M 0 0L 272 0L 288 16L 288 73L 0 73L 0 0Z" stroke="none" fill-opacity="1" fill="#ffffaa"></path><path id="SvgjsPath1906" d="M 272 0L 272 16L 288 16Z" stroke="none" fill-opacity="1" fill="#cdcdcd"></path><path id="SvgjsPath1907" d="M 0 0L 272 0L 288 16L 288 73L 0 73L 0 0Z" stroke="none" fill="none"></path><g id="SvgjsG1908"><text id="SvgjsText1909" font-family="微软雅黑" text-anchor="start" font-size="13px" width="268px" fill="#323232" font-weight="400" align="middle" lineHeight="125%" anchor="start" family="微软雅黑" size="13px" weight="400" font-style="" opacity="1" y="2.875" transform="rotate(0)"><tspan id="SvgjsTspan1910" dy="16" x="10"><tspan id="SvgjsTspan1911" style="text-decoration:;">窗口计算模式下，</tspan></tspan><tspan id="SvgjsTspan1912" dy="16" x="10"><tspan id="SvgjsTspan1913" style="text-decoration:;">1、只会发送Watermark信息</tspan></tspan><tspan id="SvgjsTspan1914" dy="16" x="10"><tspan id="SvgjsTspan1915" style="text-decoration:;">2、并携带可drop window信息</tspan></tspan><tspan id="SvgjsTspan1916" dy="16" x="10"><tspan id="SvgjsTspan1917" style="text-decoration:;">3、通过memory channel发送到异步线程处理</tspan></tspan></text></g></g><g id="SvgjsG1918"><path id="SvgjsPath1919" d="M990 796L831.5 773" stroke="#323232" stroke-width="2" fill="none" marker-end="url(#SvgjsMarker1920)"></path></g><g id="SvgjsG1922" transform="translate(734,537.5)"><path id="SvgjsPath1923" d="M 0 0L 217 0L 233 16L 233 60.5L 0 60.5L 0 0Z" stroke="none" fill-opacity="1" fill="#ffffaa"></path><path id="SvgjsPath1924" d="M 217 0L 217 16L 233 16Z" stroke="none" fill-opacity="1" fill="#cdcdcd"></path><path id="SvgjsPath1925" d="M 0 0L 217 0L 233 16L 233 60.5L 0 60.5L 0 0Z" stroke="none" fill="none"></path><g id="SvgjsG1926"><text id="SvgjsText1927" font-family="微软雅黑" text-anchor="start" font-size="13px" width="213px" fill="#323232" font-weight="400" align="middle" lineHeight="125%" anchor="start" family="微软雅黑" size="13px" weight="400" font-style="" opacity="1" y="12.625" transform="rotate(0)"><tspan id="SvgjsTspan1928" dy="16" x="10"><tspan id="SvgjsTspan1929" style="text-decoration:;">该流程分支不会同时出现，根据是否</tspan></tspan><tspan id="SvgjsTspan1930" dy="16" x="10"><tspan id="SvgjsTspan1931" style="text-decoration:;">要进行窗口计算进行计划生成</tspan></tspan></text></g></g><g id="SvgjsG1932" transform="translate(63,601)"><path id="SvgjsPath1933" d="M 109 0Q 100 0 100 9L 100 190Q 100 199 87 199Q 100 199 100 208L 100 389Q 100 398 109 398" stroke="rgba(50,50,50,1)" stroke-width="2" fill="none"></path><path id="SvgjsPath1934" d="M 0 0L 109 0L 109 398L 0 398Z" stroke="none" fill="none"></path><g id="SvgjsG1935"><text id="SvgjsText1936" font-family="微软雅黑" text-anchor="end" font-size="13px" width="82px" fill="#323232" font-weight="700" align="middle" lineHeight="125%" anchor="end" family="微软雅黑" size="13px" weight="700" font-style="" opacity="1" y="189.375" transform="rotate(0)"><tspan id="SvgjsTspan1937" dy="16" x="82"><tspan id="SvgjsTspan1938" style="text-decoration:;">Forward Job</tspan></tspan></text></g></g><g id="SvgjsG1939" transform="translate(25,390)"><path id="SvgjsPath1940" d="M 123 0Q 114 0 114 9L 114 194Q 114 203 101 203Q 114 203 114 212L 114 397Q 114 406 123 406" stroke="rgba(50,50,50,1)" stroke-width="2" fill="none"></path><path id="SvgjsPath1941" d="M 0 0L 123 0L 123 406L 0 406Z" stroke="none" fill="none"></path><g id="SvgjsG1942"><text id="SvgjsText1943" font-family="微软雅黑" text-anchor="end" font-size="13px" width="96px" fill="#323232" font-weight="700" align="middle" lineHeight="125%" anchor="end" family="微软雅黑" size="13px" weight="700" font-style="" opacity="1" y="193.375" transform="rotate(0)"><tspan id="SvgjsTspan1944" dy="16" x="96"><tspan id="SvgjsTspan1945" style="text-decoration:;">Balance Job</tspan></tspan></text></g></g><g id="SvgjsG1946" transform="translate(944,993)"><path id="SvgjsPath1947" d="M 0 0L 238 0L 254 16L 254 56L 0 56L 0 0Z" stroke="none" fill-opacity="1" fill="#ffffaa"></path><path id="SvgjsPath1948" d="M 238 0L 238 16L 254 16Z" stroke="none" fill-opacity="1" fill="#cdcdcd"></path><path id="SvgjsPath1949" d="M 0 0L 238 0L 254 16L 254 56L 0 56L 0 0Z" stroke="none" fill="none"></path><g id="SvgjsG1950"><text id="SvgjsText1951" font-family="微软雅黑" text-anchor="start" font-size="13px" width="234px" fill="#323232" font-weight="400" align="middle" lineHeight="125%" anchor="start" family="微软雅黑" size="13px" weight="400" font-style="" opacity="1" y="2.375" transform="rotate(0)"><tspan id="SvgjsTspan1952" dy="16" x="10"><tspan id="SvgjsTspan1953" style="text-decoration:;">1、根据Watermark携带的window集合，</tspan></tspan><tspan id="SvgjsTspan1954" dy="16" x="10"><tspan id="SvgjsTspan1955" style="text-decoration:;">从State中读取数据并输出</tspan></tspan><tspan id="SvgjsTspan1956" dy="16" x="10"><tspan id="SvgjsTspan1957" style="text-decoration:;">2、drop窗口和数据</tspan></tspan></text></g></g><g id="SvgjsG1958"><path id="SvgjsPath1959" d="M1071 993L950.5 969" stroke="#323232" stroke-width="2" fill="none" marker-end="url(#SvgjsMarker1960)"></path></g></svg>